<?xml version="1.0" encoding="UTF-8" standalone="no"?><!DOCTYPE svg PUBLIC "-//W3C//DTD SVG 1.1//EN" "http://www.w3.org/Graphics/SVG/1.1/DTD/svg11.dtd"><svg width="100%" height="100%" viewBox="0 0 1963 1472" version="1.1" xmlns="http://www.w3.org/2000/svg" xmlns:xlink="http://www.w3.org/1999/xlink" xml:space="preserve" xmlns:serif="http://www.serif.com/" style="fill-rule:evenodd;clip-rule:evenodd;stroke-linecap:round;stroke-linejoin:round;stroke-miterlimit:1.5;"><rect id="Artboard4" x="0" y="0" width="1962.07" height="1471.55" style="fill:none;"/><g><rect x="90.854" y="130.011" width="306.573" height="167.832" style="fill:none;stroke:#3a4e65;stroke-width:12.5px;"/><path d="M413.091,132.83c-0,-8.966 -7.279,-16.245 -16.246,-16.245l-303.172,-0c-8.966,-0 -16.246,7.279 -16.246,16.245l0,177.858c0,8.966 7.28,16.246 16.246,16.246l303.172,-0c8.967,-0 16.246,-7.28 16.246,-16.246l-0,-177.858Z" style="fill:none;stroke:#3a4e65;stroke-width:12.5px;"/><path d="M281.063,326.934l-73.846,-0l-11.188,46.993l98.461,-0l-13.427,-46.993Z" style="fill:none;stroke:#3a4e65;stroke-width:12.5px;"/><g><path d="M149.452,145.675l46.16,46.161" style="fill:none;stroke:#3a4e65;stroke-width:12.5px;"/><path d="M209.039,205.665l13.426,13.856" style="fill:none;stroke:#3a4e65;stroke-width:12.5px;"/><path d="M240.368,237.423l2.237,2.238" style="fill:none;stroke:#3a4e65;stroke-width:12.5px;"/><path d="M149.452,183.717l46.993,46.993" style="fill:none;stroke:#3a4e65;stroke-width:12.5px;"/><path d="M216.584,250.85l17.07,17.902" style="fill:none;stroke:#3a4e65;stroke-width:12.5px;"/><path d="M118.029,150.944l17.258,17.721" style="fill:none;stroke:#3a4e65;stroke-width:12.5px;"/></g><path d="M202.742,360.5l87.272,-0" style="fill:none;stroke:#3a4e65;stroke-width:12.5px;"/></g><g><circle cx="735.777" cy="245.256" r="91.748" style="fill:none;stroke:#3a4e65;stroke-width:14.58px;"/><circle cx="735.777" cy="245.256" r="109.808" style="fill:none;stroke:#3a4e65;stroke-width:14.58px;"/><path d="M735.777,153.507l0,22.378" style="fill:none;stroke:#3a4e65;stroke-width:14.58px;"/><path d="M735.777,314.626l0,22.378" style="fill:none;stroke:#3a4e65;stroke-width:14.58px;"/><path d="M666.407,245.256l-22.378,-0" style="fill:none;stroke:#3a4e65;stroke-width:14.58px;"/><path d="M805.148,245.256l22.378,-0" style="fill:none;stroke:#3a4e65;stroke-width:14.58px;"/><path d="M699.973,245.231l35.804,0.036" style="fill:none;stroke:#3a4e65;stroke-width:14.58px;"/><path d="M769.882,191.543l-34.105,53.688" style="fill:none;stroke:#3a4e65;stroke-width:14.58px;"/></g><g><circle cx="1716.81" cy="245.259" r="91.748" style="fill:none;stroke:#3a4e65;stroke-width:14.58px;"/><circle cx="1716.81" cy="245.259" r="109.808" style="fill:none;stroke:#3a4e65;stroke-width:14.58px;"/><path d="M1716.81,153.511l0,22.378" style="fill:none;stroke:#3a4e65;stroke-width:14.58px;"/><path d="M1716.81,314.63l0,22.377" style="fill:none;stroke:#3a4e65;stroke-width:14.58px;"/><path d="M1647.44,245.259l-22.378,0" style="fill:none;stroke:#3a4e65;stroke-width:14.58px;"/><path d="M1786.18,245.259l22.377,0" style="fill:none;stroke:#3a4e65;stroke-width:14.58px;"/><path d="M1681.01,245.235l35.804,0.035" style="fill:none;stroke:#3a4e65;stroke-width:14.58px;"/><path d="M1750.92,191.547l-34.105,53.688" style="fill:none;stroke:#3a4e65;stroke-width:14.58px;"/></g><g><g><path d="M1771.64,658.573l-120.839,120.839l-11.188,33.566l33.566,-11.189l120.839,-120.838l-22.378,-22.378Z" style="fill:none;stroke:#3a4e65;stroke-width:14.58px;"/></g><path d="M1650.8,779.412l22.378,22.377" style="fill:none;stroke:#3a4e65;stroke-width:14.58px;"/></g><g><rect x="1111.05" y="168.053" width="230.489" height="154.405" style="fill:none;stroke:#3a4e65;stroke-width:14.58px;"/><path d="M1111.05,168.053l115.245,83.916l115.244,-83.916" style="fill:none;stroke:#3a4e65;stroke-width:14.58px;"/></g><g><path d="M112.378,1216.31l13.427,13.856" style="fill:none;stroke:#3a4e65;stroke-width:14.58px;"/><path d="M239.93,1217.64l13.427,13.856" style="fill:none;stroke:#3a4e65;stroke-width:14.58px;"/><path d="M137.208,1241.35l8.951,8.951" style="fill:none;stroke:#3a4e65;stroke-width:14.58px;"/><path d="M264.76,1242.69l8.951,8.951" style="fill:none;stroke:#3a4e65;stroke-width:14.58px;"/><path d="M159.371,1241.35l2.238,2.237" style="fill:none;stroke:#3a4e65;stroke-width:14.58px;"/><path d="M286.923,1242.69l2.238,2.238" style="fill:none;stroke:#3a4e65;stroke-width:14.58px;"/><path d="M125.805,1207.36l22.807,22.807" style="fill:none;stroke:#3a4e65;stroke-width:14.58px;"/><path d="M253.357,1208.69l22.807,22.807" style="fill:none;stroke:#3a4e65;stroke-width:14.58px;"/><circle cx="141.688" cy="1241.35" r="43.636" style="fill:none;stroke:#3a4e65;stroke-width:14.58px;"/><circle cx="271.477" cy="1241.35" r="43.636" style="fill:none;stroke:#3a4e65;stroke-width:14.58px;"/><path d="M189.799,1232.4c11.189,-5.3 22.378,-5.827 33.567,-0" style="fill:none;stroke:#3a4e65;stroke-width:14.58px;"/><path d="M315.114,1230.32l59.451,-59.451c10.765,-7.666 16.808,-1.913 17.902,17.902" style="fill:none;stroke:#3a4e65;stroke-width:14.58px;"/><path d="M100.289,1230.32l59.451,-59.451c10.766,-7.666 16.809,-1.913 17.902,17.902" style="fill:none;stroke:#3a4e65;stroke-width:14.58px;"/></g><g><circle cx="1226.3" cy="1226.29" r="87.493" style="fill:none;stroke:#3a4e65;stroke-width:14.58px;"/><circle cx="1226.3" cy="1196.45" r="29.842" style="fill:none;stroke:#3a4e65;stroke-width:14.58px;"/><ellipse cx="1225.62" cy="1277.5" rx="59.007" ry="36.286" style="fill:none;stroke:#3a4e65;stroke-width:14.58px;"/></g><g><g><path d="M790.603,658.571l-120.839,120.839l-11.189,33.566l33.566,-11.188l120.839,-120.839l-22.377,-22.378Z" style="fill:none;stroke:#3a4e65;stroke-width:14.58px;"/></g><path d="M669.764,779.41l22.377,22.378" style="fill:none;stroke:#3a4e65;stroke-width:14.58px;"/></g><g><g><rect x="144.56" y="654.777" width="201.398" height="30.648" style="fill:none;stroke:#3a4e65;stroke-width:14.58px;"/><g><path d="M173.019,707.315l-0,87.565" style="fill:none;stroke:#3a4e65;stroke-width:14.58px;"/><path d="M173.019,707.315l144.481,0" style="fill:none;stroke:#3a4e65;stroke-width:14.58px;"/><path d="M173.019,794.88l144.481,-0" style="fill:none;stroke:#3a4e65;stroke-width:14.58px;"/><path d="M173.019,735.774l144.481,-0" style="fill:none;stroke:#3a4e65;stroke-width:14.58px;"/><path d="M173.019,764.232l144.481,0" style="fill:none;stroke:#3a4e65;stroke-width:14.58px;"/><path d="M203.666,707.315l0,87.565" style="fill:none;stroke:#3a4e65;stroke-width:14.58px;"/><path d="M232.125,707.315l-0,87.565" style="fill:none;stroke:#3a4e65;stroke-width:14.58px;"/><path d="M260.583,707.315l-0,87.565" style="fill:none;stroke:#3a4e65;stroke-width:14.58px;"/><path d="M289.041,707.315l0,87.565" style="fill:none;stroke:#3a4e65;stroke-width:14.58px;"/><path d="M317.5,707.315l-0,87.565" style="fill:none;stroke:#3a4e65;stroke-width:14.58px;"/></g></g><rect x="144.56" y="685.424" width="201.398" height="131.347" style="fill:none;stroke:#3a4e65;stroke-width:14.58px;"/></g><g><path d="M1131.56,647.615l0,205.265l157.896,-0l0,-205.265l-157.896,0Z" style="fill:none;stroke:#3a4e65;stroke-width:14.58px;"/><path d="M1155.24,679.195l110.527,-0" style="fill:none;stroke:#3a4e65;stroke-width:14.58px;"/><path d="M1155.24,705.51l110.527,0" style="fill:none;stroke:#3a4e65;stroke-width:14.58px;"/><path d="M1155.24,810.774l46.053,0" style="fill:none;stroke:#3a4e65;stroke-width:14.58px;"/><path d="M1155.24,731.826l81.579,0" style="fill:none;stroke:#3a4e65;stroke-width:14.58px;"/><path d="M1155.24,758.142l110.527,0" style="fill:none;stroke:#3a4e65;stroke-width:14.58px;"/><path d="M1155.24,784.458l110.527,0" style="fill:none;stroke:#3a4e65;stroke-width:14.58px;"/><path d="M1163.14,647.615l0.069,-28.947l157.826,-0l0,205.264l-31.579,0" style="fill:none;stroke:#3a4e65;stroke-width:14.58px;"/></g><g><path d="M677.309,1147.97l46.161,46.16" style="fill:none;stroke:#3a4e65;stroke-width:12.5px;"/><path d="M736.896,1207.96l13.427,13.856" style="fill:none;stroke:#3a4e65;stroke-width:12.5px;"/><path d="M768.225,1239.72l2.238,2.237" style="fill:none;stroke:#3a4e65;stroke-width:12.5px;"/><path d="M677.309,1186.01l46.993,46.992" style="fill:none;stroke:#3a4e65;stroke-width:12.5px;"/><path d="M744.442,1253.14l17.07,17.902" style="fill:none;stroke:#3a4e65;stroke-width:12.5px;"/><rect x="717.875" y="1116.64" width="40.28" height="13.427" style="fill:none;stroke:#3a4e65;stroke-width:12.5px;"/><path d="M812.98,1128.95c0,-20.996 -17.046,-38.042 -38.042,-38.042l-76.083,-0c-20.996,-0 -38.042,17.046 -38.042,38.042l-0,194.685c-0,20.995 17.046,38.041 38.042,38.041l76.083,0c20.996,0 38.042,-17.046 38.042,-38.041l0,-194.685Z" style="fill:none;stroke:#3a4e65;stroke-width:12.5px;"/><path d="M798.721,1134.69c0,-16.752 -13.6,-30.353 -30.353,-30.353l-60.706,0c-16.752,0 -30.353,13.601 -30.353,30.353l0,183.21c0,16.752 13.601,30.353 30.353,30.353l60.706,-0c16.753,-0 30.353,-13.601 30.353,-30.353l0,-183.21Z" style="fill:none;stroke:#3a4e65;stroke-width:12.5px;"/><circle cx="736.896" cy="1330.35" r="13.427" style="fill:none;stroke:#3a4e65;stroke-width:12.5px;"/></g><g><path d="M1657.23,1147.97l46.161,46.16" style="fill:none;stroke:#3a4e65;stroke-width:12.5px;"/><path d="M1716.81,1207.96l13.427,13.856" style="fill:none;stroke:#3a4e65;stroke-width:12.5px;"/><path d="M1748.14,1239.72l2.238,2.237" style="fill:none;stroke:#3a4e65;stroke-width:12.5px;"/><path d="M1657.23,1186.01l46.993,46.992" style="fill:none;stroke:#3a4e65;stroke-width:12.5px;"/><path d="M1724.36,1253.14l17.069,17.902" style="fill:none;stroke:#3a4e65;stroke-width:12.5px;"/><rect x="1697.79" y="1116.64" width="40.28" height="13.427" style="fill:none;stroke:#3a4e65;stroke-width:12.5px;"/><path d="M1792.9,1128.95c-0,-20.996 -17.046,-38.042 -38.042,-38.042l-76.084,-0c-20.996,-0 -38.042,17.046 -38.042,38.042l0,194.685c0,20.995 17.046,38.041 38.042,38.041l76.084,0c20.996,0 38.042,-17.046 38.042,-38.041l-0,-194.685Z" style="fill:none;stroke:#3a4e65;stroke-width:12.5px;"/><path d="M1778.64,1134.69c0,-16.752 -13.601,-30.353 -30.353,-30.353l-60.706,0c-16.752,0 -30.353,13.601 -30.353,30.353l-0,183.21c-0,16.752 13.601,30.353 30.353,30.353l60.706,-0c16.752,-0 30.353,-13.601 30.353,-30.353l0,-183.21Z" style="fill:none;stroke:#3a4e65;stroke-width:12.5px;"/><circle cx="1716.81" cy="1330.35" r="13.427" style="fill:none;stroke:#3a4e65;stroke-width:12.5px;"/></g></svg>