<?xml version="1.0" encoding="UTF-8" standalone="no"?><!DOCTYPE svg PUBLIC "-//W3C//DTD SVG 1.1//EN" "http://www.w3.org/Graphics/SVG/1.1/DTD/svg11.dtd"><svg width="100%" height="100%" viewBox="0 0 1472 1472" version="1.1" xmlns="http://www.w3.org/2000/svg" xmlns:xlink="http://www.w3.org/1999/xlink" xml:space="preserve" xmlns:serif="http://www.serif.com/" style="fill-rule:evenodd;clip-rule:evenodd;stroke-linecap:round;stroke-linejoin:round;stroke-miterlimit:1.5;"><rect id="Artboard3" x="0" y="0" width="1471.56" height="1471.55" style="fill:none;"/><g><rect x="117.148" y="126.656" width="306.573" height="167.832" style="fill:none;stroke:#3a4e65;stroke-width:12.5px;"/><path d="M439.385,129.475c-0,-8.966 -7.28,-16.245 -16.246,-16.245l-303.172,-0c-8.967,-0 -16.246,7.279 -16.246,16.245l0,177.858c0,8.966 7.279,16.246 16.246,16.246l303.172,-0c8.966,-0 16.246,-7.28 16.246,-16.246l-0,-177.858Z" style="fill:none;stroke:#3a4e65;stroke-width:12.5px;"/><path d="M307.357,323.579l-73.846,-0l-11.189,46.993l98.461,-0l-13.426,-46.993Z" style="fill:none;stroke:#3a4e65;stroke-width:12.5px;"/><g><path d="M175.745,142.321l46.161,46.16" style="fill:none;stroke:#3a4e65;stroke-width:12.5px;"/><path d="M235.333,202.311l13.426,13.856" style="fill:none;stroke:#3a4e65;stroke-width:12.5px;"/><path d="M266.661,234.069l2.238,2.237" style="fill:none;stroke:#3a4e65;stroke-width:12.5px;"/><path d="M175.745,180.362l46.993,46.993" style="fill:none;stroke:#3a4e65;stroke-width:12.5px;"/><path d="M242.878,247.495l17.07,17.902" style="fill:none;stroke:#3a4e65;stroke-width:12.5px;"/><path d="M144.323,147.589l17.257,17.722" style="fill:none;stroke:#3a4e65;stroke-width:12.5px;"/></g><path d="M229.035,357.145l87.273,0" style="fill:none;stroke:#3a4e65;stroke-width:12.5px;"/></g><g><circle cx="762.071" cy="241.901" r="91.748" style="fill:none;stroke:#3a4e65;stroke-width:14.58px;"/><circle cx="762.071" cy="241.901" r="109.808" style="fill:none;stroke:#3a4e65;stroke-width:14.58px;"/><path d="M762.071,150.153l0,22.377" style="fill:none;stroke:#3a4e65;stroke-width:14.58px;"/><path d="M762.071,311.271l0,22.378" style="fill:none;stroke:#3a4e65;stroke-width:14.58px;"/><path d="M692.701,241.901l-22.378,-0" style="fill:none;stroke:#3a4e65;stroke-width:14.58px;"/><path d="M831.442,241.901l22.377,-0" style="fill:none;stroke:#3a4e65;stroke-width:14.58px;"/><path d="M726.267,241.876l35.804,0.036" style="fill:none;stroke:#3a4e65;stroke-width:14.58px;"/><path d="M796.176,188.188l-34.105,53.688" style="fill:none;stroke:#3a4e65;stroke-width:14.58px;"/></g><g><rect x="1137.35" y="164.698" width="230.489" height="154.405" style="fill:none;stroke:#3a4e65;stroke-width:14.58px;"/><path d="M1137.35,164.698l115.244,83.916l115.245,-83.916" style="fill:none;stroke:#3a4e65;stroke-width:14.58px;"/></g><g><path d="M138.672,1212.95l13.426,13.856" style="fill:none;stroke:#3a4e65;stroke-width:14.58px;"/><path d="M266.224,1214.29l13.426,13.856" style="fill:none;stroke:#3a4e65;stroke-width:14.58px;"/><path d="M163.502,1238l8.951,8.951" style="fill:none;stroke:#3a4e65;stroke-width:14.58px;"/><path d="M291.054,1239.33l8.951,8.951" style="fill:none;stroke:#3a4e65;stroke-width:14.58px;"/><path d="M185.665,1238l2.237,2.237" style="fill:none;stroke:#3a4e65;stroke-width:14.58px;"/><path d="M313.217,1239.33l2.238,2.238" style="fill:none;stroke:#3a4e65;stroke-width:14.58px;"/><path d="M152.098,1204l22.807,22.807" style="fill:none;stroke:#3a4e65;stroke-width:14.58px;"/><path d="M279.65,1205.34l22.807,22.807" style="fill:none;stroke:#3a4e65;stroke-width:14.58px;"/><circle cx="167.981" cy="1238" r="43.636" style="fill:none;stroke:#3a4e65;stroke-width:14.58px;"/><circle cx="297.771" cy="1238" r="43.636" style="fill:none;stroke:#3a4e65;stroke-width:14.58px;"/><path d="M216.093,1229.05c11.189,-5.299 22.378,-5.826 33.566,-0" style="fill:none;stroke:#3a4e65;stroke-width:14.58px;"/><path d="M341.407,1226.96l59.452,-59.452c10.765,-7.665 16.808,-1.913 17.902,17.902" style="fill:none;stroke:#3a4e65;stroke-width:14.58px;"/><path d="M126.583,1226.96l59.451,-59.452c10.765,-7.665 16.808,-1.913 17.902,17.902" style="fill:none;stroke:#3a4e65;stroke-width:14.58px;"/></g><g><circle cx="1252.59" cy="1222.94" r="87.493" style="fill:none;stroke:#3a4e65;stroke-width:14.58px;"/><circle cx="1252.59" cy="1193.1" r="29.842" style="fill:none;stroke:#3a4e65;stroke-width:14.58px;"/><ellipse cx="1251.91" cy="1274.14" rx="59.007" ry="36.286" style="fill:none;stroke:#3a4e65;stroke-width:14.58px;"/></g><g><path d="M702.484,1144.62l46.161,46.161" style="fill:none;stroke:#3a4e65;stroke-width:12.5px;"/><path d="M762.071,1204.61l13.427,13.856" style="fill:none;stroke:#3a4e65;stroke-width:12.5px;"/><path d="M793.4,1236.36l2.238,2.238" style="fill:none;stroke:#3a4e65;stroke-width:12.5px;"/><path d="M702.484,1182.66l46.993,46.993" style="fill:none;stroke:#3a4e65;stroke-width:12.5px;"/><path d="M769.617,1249.79l17.069,17.902" style="fill:none;stroke:#3a4e65;stroke-width:12.5px;"/><rect x="743.05" y="1113.29" width="40.28" height="13.427" style="fill:none;stroke:#3a4e65;stroke-width:12.5px;"/><path d="M838.155,1125.6c-0,-20.996 -17.046,-38.042 -38.042,-38.042l-76.084,0c-20.996,0 -38.042,17.046 -38.042,38.042l0,194.685c0,20.996 17.046,38.042 38.042,38.042l76.084,-0c20.996,-0 38.042,-17.046 38.042,-38.042l-0,-194.685Z" style="fill:none;stroke:#3a4e65;stroke-width:12.5px;"/><path d="M823.896,1131.33c0,-16.753 -13.601,-30.353 -30.353,-30.353l-60.706,-0c-16.752,-0 -30.353,13.6 -30.353,30.353l-0,183.209c-0,16.752 13.601,30.353 30.353,30.353l60.706,0c16.752,0 30.353,-13.601 30.353,-30.353l0,-183.209Z" style="fill:none;stroke:#3a4e65;stroke-width:12.5px;"/><circle cx="762.071" cy="1326.99" r="13.427" style="fill:none;stroke:#3a4e65;stroke-width:12.5px;"/></g><g><g><path d="M816.896,655.216l-120.839,120.839l-11.188,33.567l33.566,-11.189l120.839,-120.839l-22.378,-22.378Z" style="fill:none;stroke:#3a4e65;stroke-width:14.58px;"/></g><path d="M696.057,776.055l22.378,22.378" style="fill:none;stroke:#3a4e65;stroke-width:14.58px;"/></g><g><g><rect x="170.854" y="651.422" width="201.398" height="30.648" style="fill:none;stroke:#3a4e65;stroke-width:14.58px;"/><g><path d="M199.312,703.961l0,87.564" style="fill:none;stroke:#3a4e65;stroke-width:14.58px;"/><path d="M199.312,703.961l144.481,-0" style="fill:none;stroke:#3a4e65;stroke-width:14.58px;"/><path d="M199.312,791.525l144.481,-0" style="fill:none;stroke:#3a4e65;stroke-width:14.58px;"/><path d="M199.312,732.419l144.481,0" style="fill:none;stroke:#3a4e65;stroke-width:14.58px;"/><path d="M199.312,760.877l144.481,0" style="fill:none;stroke:#3a4e65;stroke-width:14.58px;"/><path d="M229.96,703.961l-0,87.564" style="fill:none;stroke:#3a4e65;stroke-width:14.58px;"/><path d="M258.418,703.961l0,87.564" style="fill:none;stroke:#3a4e65;stroke-width:14.58px;"/><path d="M286.877,703.961l-0,87.564" style="fill:none;stroke:#3a4e65;stroke-width:14.58px;"/><path d="M315.335,703.961l0,87.564" style="fill:none;stroke:#3a4e65;stroke-width:14.58px;"/><path d="M343.793,703.961l0,87.564" style="fill:none;stroke:#3a4e65;stroke-width:14.58px;"/></g></g><rect x="170.854" y="682.07" width="201.398" height="131.347" style="fill:none;stroke:#3a4e65;stroke-width:14.58px;"/></g><g><path d="M1157.85,644.261l0,205.264l157.896,0l-0,-205.264l-157.896,-0Z" style="fill:none;stroke:#3a4e65;stroke-width:14.58px;"/><path d="M1181.54,675.84l110.527,-0" style="fill:none;stroke:#3a4e65;stroke-width:14.58px;"/><path d="M1181.54,702.156l110.527,-0" style="fill:none;stroke:#3a4e65;stroke-width:14.58px;"/><path d="M1181.54,807.42l46.053,-0" style="fill:none;stroke:#3a4e65;stroke-width:14.58px;"/><path d="M1181.54,728.472l81.58,-0" style="fill:none;stroke:#3a4e65;stroke-width:14.58px;"/><path d="M1181.54,754.788l110.527,-0" style="fill:none;stroke:#3a4e65;stroke-width:14.58px;"/><path d="M1181.54,781.104l110.527,-0" style="fill:none;stroke:#3a4e65;stroke-width:14.58px;"/><path d="M1189.43,644.261l0.07,-28.948l157.826,-0l-0,205.265l-31.579,-0" style="fill:none;stroke:#3a4e65;stroke-width:14.58px;"/></g></svg>