<?xml version="1.0" encoding="UTF-8" standalone="no"?><!DOCTYPE svg PUBLIC "-//W3C//DTD SVG 1.1//EN" "http://www.w3.org/Graphics/SVG/1.1/DTD/svg11.dtd"><svg width="100%" height="100%" viewBox="0 0 296 296" version="1.1" xmlns="http://www.w3.org/2000/svg" xmlns:xlink="http://www.w3.org/1999/xlink" xml:space="preserve" xmlns:serif="http://www.serif.com/" style="fill-rule:evenodd;clip-rule:evenodd;stroke-linecap:round;stroke-linejoin:round;stroke-miterlimit:1.5;"><rect id="Artboard6" x="0" y="0" width="295.127" height="295.127" style="fill:none;"/><g><path d="M87.976,69.242l46.161,46.16" style="fill:none;stroke:#303d4d;stroke-width:12.5px;"/><path d="M147.563,129.232l13.427,13.856" style="fill:none;stroke:#303d4d;stroke-width:12.5px;"/><path d="M178.892,160.99l2.238,2.238" style="fill:none;stroke:#303d4d;stroke-width:12.5px;"/><path d="M87.976,107.284l46.993,46.993" style="fill:none;stroke:#303d4d;stroke-width:12.5px;"/><path d="M155.109,174.416l17.07,17.902" style="fill:none;stroke:#303d4d;stroke-width:12.5px;"/><rect x="128.542" y="37.913" width="40.28" height="13.427" style="fill:none;stroke:#303d4d;stroke-width:12.5px;"/><path d="M223.647,50.221c0,-20.996 -17.046,-38.042 -38.042,-38.042l-76.084,0c-20.995,0 -38.041,17.046 -38.041,38.042l-0,194.685c-0,20.996 17.046,38.042 38.041,38.042l76.084,-0c20.996,-0 38.042,-17.046 38.042,-38.042l0,-194.685Z" style="fill:none;stroke:#303d4d;stroke-width:12.5px;"/><path d="M209.388,55.959c0,-16.753 -13.6,-30.353 -30.353,-30.353l-60.706,-0c-16.752,-0 -30.353,13.6 -30.353,30.353l0,183.209c0,16.752 13.601,30.353 30.353,30.353l60.706,0c16.753,0 30.353,-13.601 30.353,-30.353l0,-183.209Z" style="fill:none;stroke:#303d4d;stroke-width:12.5px;"/><circle cx="147.563" cy="251.619" r="13.427" style="fill:none;stroke:#303d4d;stroke-width:12.5px;"/></g></svg>